<?xml version="1.0" encoding="ISO-8859-1" standalone="no"?>
		<!DOCTYPE svg PUBLIC "-//W3C//DTD SVG 20010904//EN"
		    "http://www.w3.org/TR/2001/REC-SVG-20010904/DTD/svg10.dtd">
		<svg xmlns="http://www.w3.org/2000/svg"
		     xmlns:xlink="http://www.w3.org/1999/xlink" xml:space="preserve" width="789" height="760">
<path d="M 585.250000,400.000000 L 559.388613,367.899474 " stroke-width="5" stroke="rgb(200,200,200)" stroke-linecap="round" fill="none" />
<path d="M 559.388613,367.899474 L 515.911393,384.323578 " stroke-width="5" stroke="rgb(200,200,200)" stroke-linecap="round" fill="none" />
<path d="M 515.911393,384.323578 L 512.031998,433.615956 " stroke-width="5" stroke="rgb(200,200,200)" stroke-linecap="round" fill="none" />
<path d="M 512.031998,433.615956 L 552.404646,456.639188 " stroke-width="5" stroke="rgb(200,200,200)" stroke-linecap="round" fill="none" />
<path d="M 552.404646,456.639188 L 582.969265,428.979485 " stroke-width="5" stroke="rgb(200,200,200)" stroke-linecap="round" fill="none" />
<path d="M 582.969265,428.979485 L 562.447904,393.228557 " stroke-width="5" stroke="rgb(200,200,200)" stroke-linecap="round" fill="none" />
<path d="M 562.447904,393.228557 L 516.936664,402.649117 " stroke-width="5" stroke="rgb(200,200,200)" stroke-linecap="round" fill="none" />
<path d="M 516.936664,402.649117 L 505.394004,450.727754 " stroke-width="5" stroke="rgb(200,200,200)" stroke-linecap="round" fill="none" />
<path d="M 505.394004,450.727754 L 541.667971,479.783205 " stroke-width="5" stroke="rgb(200,200,200)" stroke-linecap="round" fill="none" />
<path d="M 541.667971,479.783205 L 576.183220,457.245398 " stroke-width="5" stroke="rgb(200,200,200)" stroke-linecap="round" fill="none" />
<path d="M 576.183220,457.245398 L 561.507188,418.724375 " stroke-width="5" stroke="rgb(200,200,200)" stroke-linecap="round" fill="none" />
<path d="M 561.507188,418.724375 L 515.082566,420.909427 " stroke-width="5" stroke="rgb(200,200,200)" stroke-linecap="round" fill="none" />
<path d="M 515.082566,420.909427 L 496.160860,466.590465 " stroke-width="5" stroke="rgb(200,200,200)" stroke-linecap="round" fill="none" />
<path d="M 496.160860,466.590465 L 527.442960,500.962695 " stroke-width="5" stroke="rgb(200,200,200)" stroke-linecap="round" fill="none" />
<path d="M 527.442960,500.962695 L 565.058959,484.101740 " stroke-width="5" stroke="rgb(200,200,200)" stroke-linecap="round" fill="none" />
<path d="M 565.058959,484.101740 L 556.589628,443.759138 " stroke-width="5" stroke="rgb(200,200,200)" stroke-linecap="round" fill="none" />
<path d="M 556.589628,443.759138 L 510.394754,438.654877 " stroke-width="5" stroke="rgb(200,200,200)" stroke-linecap="round" fill="none" />
<path d="M 510.394754,438.654877 L 484.559917,480.813499 " stroke-width="5" stroke="rgb(200,200,200)" stroke-linecap="round" fill="none" />
<path d="M 484.559917,480.813499 L 510.079881,519.656148 " stroke-width="5" stroke="rgb(200,200,200)" stroke-linecap="round" fill="none" />
<path d="M 510.079881,519.656148 L 549.870398,508.887218 " stroke-width="5" stroke="rgb(200,200,200)" stroke-linecap="round" fill="none" />
<path d="M 549.870398,508.887218 L 547.816313,467.716405 " stroke-width="5" stroke="rgb(200,200,200)" stroke-linecap="round" fill="none" />
<path d="M 547.816313,467.716405 L 502.988656,455.448515 " stroke-width="5" stroke="rgb(200,200,200)" stroke-linecap="round" fill="none" />
<path d="M 502.988656,455.448515 L 470.876827,493.046636 " stroke-width="5" stroke="rgb(200,200,200)" stroke-linecap="round" fill="none" />
<path d="M 470.876827,493.046636 L 490.006269,535.403269 " stroke-width="5" stroke="rgb(200,200,200)" stroke-linecap="round" fill="none" />
<path d="M 490.006269,535.403269 L 530.991531,530.991531 " stroke-width="5" stroke="rgb(200,200,200)" stroke-linecap="round" fill="none" />
<path d="M 530.991531,530.991531 L 535.403269,490.006269 " stroke-width="5" stroke="rgb(200,200,200)" stroke-linecap="round" fill="none" />
<path d="M 535.403269,490.006269 L 493.046636,470.876827 " stroke-width="5" stroke="rgb(200,200,200)" stroke-linecap="round" fill="none" />
<path d="M 493.046636,470.876827 L 455.448515,502.988656 " stroke-width="5" stroke="rgb(200,200,200)" stroke-linecap="round" fill="none" />
<path d="M 455.448515,502.988656 L 467.716405,547.816313 " stroke-width="5" stroke="rgb(200,200,200)" stroke-linecap="round" fill="none" />
<path d="M 467.716405,547.816313 L 508.887218,549.870398 " stroke-width="5" stroke="rgb(200,200,200)" stroke-linecap="round" fill="none" />
<path d="M 508.887218,549.870398 L 519.656148,510.079881 " stroke-width="5" stroke="rgb(200,200,200)" stroke-linecap="round" fill="none" />
<path d="M 519.656148,510.079881 L 480.813499,484.559917 " stroke-width="5" stroke="rgb(200,200,200)" stroke-linecap="round" fill="none" />
<path d="M 480.813499,484.559917 L 438.654877,510.394754 " stroke-width="5" stroke="rgb(200,200,200)" stroke-linecap="round" fill="none" />
<path d="M 438.654877,510.394754 L 443.759138,556.589628 " stroke-width="5" stroke="rgb(200,200,200)" stroke-linecap="round" fill="none" />
<path d="M 443.759138,556.589628 L 484.101740,565.058959 " stroke-width="5" stroke="rgb(200,200,200)" stroke-linecap="round" fill="none" />
<path d="M 484.101740,565.058959 L 500.962695,527.442960 " stroke-width="5" stroke="rgb(200,200,200)" stroke-linecap="round" fill="none" />
<path d="M 500.962695,527.442960 L 466.590465,496.160860 " stroke-width="5" stroke="rgb(200,200,200)" stroke-linecap="round" fill="none" />
<path d="M 466.590465,496.160860 L 420.909427,515.082566 " stroke-width="5" stroke="rgb(200,200,200)" stroke-linecap="round" fill="none" />
<path d="M 420.909427,515.082566 L 418.724375,561.507188 " stroke-width="5" stroke="rgb(200,200,200)" stroke-linecap="round" fill="none" />
<path d="M 418.724375,561.507188 L 457.245398,576.183220 " stroke-width="5" stroke="rgb(200,200,200)" stroke-linecap="round" fill="none" />
<path d="M 457.245398,576.183220 L 479.783205,541.667971 " stroke-width="5" stroke="rgb(200,200,200)" stroke-linecap="round" fill="none" />
<path d="M 479.783205,541.667971 L 450.727754,505.394004 " stroke-width="5" stroke="rgb(200,200,200)" stroke-linecap="round" fill="none" />
<path d="M 450.727754,505.394004 L 402.649117,516.936664 " stroke-width="5" stroke="rgb(200,200,200)" stroke-linecap="round" fill="none" />
<path d="M 402.649117,516.936664 L 393.228557,562.447904 " stroke-width="5" stroke="rgb(200,200,200)" stroke-linecap="round" fill="none" />
<path d="M 393.228557,562.447904 L 428.979485,582.969265 " stroke-width="5" stroke="rgb(200,200,200)" stroke-linecap="round" fill="none" />
<path d="M 428.979485,582.969265 L 456.639188,552.404646 " stroke-width="5" stroke="rgb(200,200,200)" stroke-linecap="round" fill="none" />
<path d="M 456.639188,552.404646 L 433.615956,512.031998 " stroke-width="5" stroke="rgb(200,200,200)" stroke-linecap="round" fill="none" />
<path d="M 433.615956,512.031998 L 384.323578,515.911393 " stroke-width="5" stroke="rgb(200,200,200)" stroke-linecap="round" fill="none" />
<path d="M 384.323578,515.911393 L 367.899474,559.388613 " stroke-width="5" stroke="rgb(200,200,200)" stroke-linecap="round" fill="none" />
<path d="M 367.899474,559.388613 L 400.000000,585.250000 " stroke-width="5" stroke="rgb(200,200,200)" stroke-linecap="round" fill="none" />
<path d="M 400.000000,585.250000 L 432.100526,559.388613 " stroke-width="5" stroke="rgb(200,200,200)" stroke-linecap="round" fill="none" />
<path d="M 432.100526,559.388613 L 415.676422,515.911393 " stroke-width="5" stroke="rgb(200,200,200)" stroke-linecap="round" fill="none" />
<path d="M 415.676422,515.911393 L 366.384044,512.031998 " stroke-width="5" stroke="rgb(200,200,200)" stroke-linecap="round" fill="none" />
<path d="M 366.384044,512.031998 L 343.360812,552.404646 " stroke-width="5" stroke="rgb(200,200,200)" stroke-linecap="round" fill="none" />
<path d="M 343.360812,552.404646 L 371.020515,582.969265 " stroke-width="5" stroke="rgb(200,200,200)" stroke-linecap="round" fill="none" />
<path d="M 371.020515,582.969265 L 406.771443,562.447904 " stroke-width="5" stroke="rgb(200,200,200)" stroke-linecap="round" fill="none" />
<path d="M 406.771443,562.447904 L 397.350883,516.936664 " stroke-width="5" stroke="rgb(200,200,200)" stroke-linecap="round" fill="none" />
<path d="M 397.350883,516.936664 L 349.272246,505.394004 " stroke-width="5" stroke="rgb(200,200,200)" stroke-linecap="round" fill="none" />
<path d="M 349.272246,505.394004 L 320.216795,541.667971 " stroke-width="5" stroke="rgb(200,200,200)" stroke-linecap="round" fill="none" />
<path d="M 320.216795,541.667971 L 342.754602,576.183220 " stroke-width="5" stroke="rgb(200,200,200)" stroke-linecap="round" fill="none" />
<path d="M 342.754602,576.183220 L 381.275625,561.507188 " stroke-width="5" stroke="rgb(200,200,200)" stroke-linecap="round" fill="none" />
<path d="M 381.275625,561.507188 L 379.090573,515.082566 " stroke-width="5" stroke="rgb(200,200,200)" stroke-linecap="round" fill="none" />
<path d="M 379.090573,515.082566 L 333.409535,496.160860 " stroke-width="5" stroke="rgb(200,200,200)" stroke-linecap="round" fill="none" />
<path d="M 333.409535,496.160860 L 299.037305,527.442960 " stroke-width="5" stroke="rgb(200,200,200)" stroke-linecap="round" fill="none" />
<path d="M 299.037305,527.442960 L 315.898260,565.058959 " stroke-width="5" stroke="rgb(200,200,200)" stroke-linecap="round" fill="none" />
<path d="M 315.898260,565.058959 L 356.240862,556.589628 " stroke-width="5" stroke="rgb(200,200,200)" stroke-linecap="round" fill="none" />
<path d="M 356.240862,556.589628 L 361.345123,510.394754 " stroke-width="5" stroke="rgb(200,200,200)" stroke-linecap="round" fill="none" />
<path d="M 361.345123,510.394754 L 319.186501,484.559917 " stroke-width="5" stroke="rgb(200,200,200)" stroke-linecap="round" fill="none" />
<path d="M 319.186501,484.559917 L 280.343852,510.079881 " stroke-width="5" stroke="rgb(200,200,200)" stroke-linecap="round" fill="none" />
<path d="M 280.343852,510.079881 L 291.112782,549.870398 " stroke-width="5" stroke="rgb(200,200,200)" stroke-linecap="round" fill="none" />
<path d="M 291.112782,549.870398 L 332.283595,547.816313 " stroke-width="5" stroke="rgb(200,200,200)" stroke-linecap="round" fill="none" />
<path d="M 332.283595,547.816313 L 344.551485,502.988656 " stroke-width="5" stroke="rgb(200,200,200)" stroke-linecap="round" fill="none" />
<path d="M 344.551485,502.988656 L 306.953364,470.876827 " stroke-width="5" stroke="rgb(200,200,200)" stroke-linecap="round" fill="none" />
<path d="M 306.953364,470.876827 L 264.596731,490.006269 " stroke-width="5" stroke="rgb(200,200,200)" stroke-linecap="round" fill="none" />
<path d="M 264.596731,490.006269 L 269.008469,530.991531 " stroke-width="5" stroke="rgb(200,200,200)" stroke-linecap="round" fill="none" />
<path d="M 269.008469,530.991531 L 309.993731,535.403269 " stroke-width="5" stroke="rgb(200,200,200)" stroke-linecap="round" fill="none" />
<path d="M 309.993731,535.403269 L 329.123173,493.046636 " stroke-width="5" stroke="rgb(200,200,200)" stroke-linecap="round" fill="none" />
<path d="M 329.123173,493.046636 L 297.011344,455.448515 " stroke-width="5" stroke="rgb(200,200,200)" stroke-linecap="round" fill="none" />
<path d="M 297.011344,455.448515 L 252.183687,467.716405 " stroke-width="5" stroke="rgb(200,200,200)" stroke-linecap="round" fill="none" />
<path d="M 252.183687,467.716405 L 250.129602,508.887218 " stroke-width="5" stroke="rgb(200,200,200)" stroke-linecap="round" fill="none" />
<path d="M 250.129602,508.887218 L 289.920119,519.656148 " stroke-width="5" stroke="rgb(200,200,200)" stroke-linecap="round" fill="none" />
<path d="M 289.920119,519.656148 L 315.440083,480.813499 " stroke-width="5" stroke="rgb(200,200,200)" stroke-linecap="round" fill="none" />
<path d="M 315.440083,480.813499 L 289.605246,438.654877 " stroke-width="5" stroke="rgb(200,200,200)" stroke-linecap="round" fill="none" />
<path d="M 289.605246,438.654877 L 243.410372,443.759138 " stroke-width="5" stroke="rgb(200,200,200)" stroke-linecap="round" fill="none" />
<path d="M 243.410372,443.759138 L 234.941041,484.101740 " stroke-width="5" stroke="rgb(200,200,200)" stroke-linecap="round" fill="none" />
<path d="M 234.941041,484.101740 L 272.557040,500.962695 " stroke-width="5" stroke="rgb(200,200,200)" stroke-linecap="round" fill="none" />
<path d="M 272.557040,500.962695 L 303.839140,466.590465 " stroke-width="5" stroke="rgb(200,200,200)" stroke-linecap="round" fill="none" />
<path d="M 303.839140,466.590465 L 284.917434,420.909427 " stroke-width="5" stroke="rgb(200,200,200)" stroke-linecap="round" fill="none" />
<path d="M 284.917434,420.909427 L 238.492812,418.724375 " stroke-width="5" stroke="rgb(200,200,200)" stroke-linecap="round" fill="none" />
<path d="M 238.492812,418.724375 L 223.816780,457.245398 " stroke-width="5" stroke="rgb(200,200,200)" stroke-linecap="round" fill="none" />
<path d="M 223.816780,457.245398 L 258.332029,479.783205 " stroke-width="5" stroke="rgb(200,200,200)" stroke-linecap="round" fill="none" />
<path d="M 258.332029,479.783205 L 294.605996,450.727754 " stroke-width="5" stroke="rgb(200,200,200)" stroke-linecap="round" fill="none" />
<path d="M 294.605996,450.727754 L 283.063336,402.649117 " stroke-width="5" stroke="rgb(200,200,200)" stroke-linecap="round" fill="none" />
<path d="M 283.063336,402.649117 L 237.552096,393.228557 " stroke-width="5" stroke="rgb(200,200,200)" stroke-linecap="round" fill="none" />
<path d="M 237.552096,393.228557 L 217.030735,428.979485 " stroke-width="5" stroke="rgb(200,200,200)" stroke-linecap="round" fill="none" />
<path d="M 217.030735,428.979485 L 247.595354,456.639188 " stroke-width="5" stroke="rgb(200,200,200)" stroke-linecap="round" fill="none" />
<path d="M 247.595354,456.639188 L 287.968002,433.615956 " stroke-width="5" stroke="rgb(200,200,200)" stroke-linecap="round" fill="none" />
<path d="M 287.968002,433.615956 L 284.088607,384.323578 " stroke-width="5" stroke="rgb(200,200,200)" stroke-linecap="round" fill="none" />
<path d="M 284.088607,384.323578 L 240.611387,367.899474 " stroke-width="5" stroke="rgb(200,200,200)" stroke-linecap="round" fill="none" />
<path d="M 240.611387,367.899474 L 214.750000,400.000000 " stroke-width="5" stroke="rgb(200,200,200)" stroke-linecap="round" fill="none" />
<path d="M 214.750000,400.000000 L 240.611387,432.100526 " stroke-width="5" stroke="rgb(200,200,200)" stroke-linecap="round" fill="none" />
<path d="M 240.611387,432.100526 L 284.088607,415.676422 " stroke-width="5" stroke="rgb(200,200,200)" stroke-linecap="round" fill="none" />
<path d="M 284.088607,415.676422 L 287.968002,366.384044 " stroke-width="5" stroke="rgb(200,200,200)" stroke-linecap="round" fill="none" />
<path d="M 287.968002,366.384044 L 247.595354,343.360812 " stroke-width="5" stroke="rgb(200,200,200)" stroke-linecap="round" fill="none" />
<path d="M 247.595354,343.360812 L 217.030735,371.020515 " stroke-width="5" stroke="rgb(200,200,200)" stroke-linecap="round" fill="none" />
<path d="M 217.030735,371.020515 L 237.552096,406.771443 " stroke-width="5" stroke="rgb(200,200,200)" stroke-linecap="round" fill="none" />
<path d="M 237.552096,406.771443 L 283.063336,397.350883 " stroke-width="5" stroke="rgb(200,200,200)" stroke-linecap="round" fill="none" />
<path d="M 283.063336,397.350883 L 294.605996,349.272246 " stroke-width="5" stroke="rgb(200,200,200)" stroke-linecap="round" fill="none" />
<path d="M 294.605996,349.272246 L 258.332029,320.216795 " stroke-width="5" stroke="rgb(200,200,200)" stroke-linecap="round" fill="none" />
<path d="M 258.332029,320.216795 L 223.816780,342.754602 " stroke-width="5" stroke="rgb(200,200,200)" stroke-linecap="round" fill="none" />
<path d="M 223.816780,342.754602 L 238.492812,381.275625 " stroke-width="5" stroke="rgb(200,200,200)" stroke-linecap="round" fill="none" />
<path d="M 238.492812,381.275625 L 284.917434,379.090573 " stroke-width="5" stroke="rgb(200,200,200)" stroke-linecap="round" fill="none" />
<path d="M 284.917434,379.090573 L 303.839140,333.409535 " stroke-width="5" stroke="rgb(200,200,200)" stroke-linecap="round" fill="none" />
<path d="M 303.839140,333.409535 L 272.557040,299.037305 " stroke-width="5" stroke="rgb(200,200,200)" stroke-linecap="round" fill="none" />
<path d="M 272.557040,299.037305 L 234.941041,315.898260 " stroke-width="5" stroke="rgb(200,200,200)" stroke-linecap="round" fill="none" />
<path d="M 234.941041,315.898260 L 243.410372,356.240862 " stroke-width="5" stroke="rgb(200,200,200)" stroke-linecap="round" fill="none" />
<path d="M 243.410372,356.240862 L 289.605246,361.345123 " stroke-width="5" stroke="rgb(200,200,200)" stroke-linecap="round" fill="none" />
<path d="M 289.605246,361.345123 L 315.440083,319.186501 " stroke-width="5" stroke="rgb(200,200,200)" stroke-linecap="round" fill="none" />
<path d="M 315.440083,319.186501 L 289.920119,280.343852 " stroke-width="5" stroke="rgb(200,200,200)" stroke-linecap="round" fill="none" />
<path d="M 289.920119,280.343852 L 250.129602,291.112782 " stroke-width="5" stroke="rgb(200,200,200)" stroke-linecap="round" fill="none" />
<path d="M 250.129602,291.112782 L 252.183687,332.283595 " stroke-width="5" stroke="rgb(200,200,200)" stroke-linecap="round" fill="none" />
<path d="M 252.183687,332.283595 L 297.011344,344.551485 " stroke-width="5" stroke="rgb(200,200,200)" stroke-linecap="round" fill="none" />
<path d="M 297.011344,344.551485 L 329.123173,306.953364 " stroke-width="5" stroke="rgb(200,200,200)" stroke-linecap="round" fill="none" />
<path d="M 329.123173,306.953364 L 309.993731,264.596731 " stroke-width="5" stroke="rgb(200,200,200)" stroke-linecap="round" fill="none" />
<path d="M 309.993731,264.596731 L 269.008469,269.008469 " stroke-width="5" stroke="rgb(200,200,200)" stroke-linecap="round" fill="none" />
<path d="M 269.008469,269.008469 L 264.596731,309.993731 " stroke-width="5" stroke="rgb(200,200,200)" stroke-linecap="round" fill="none" />
<path d="M 264.596731,309.993731 L 306.953364,329.123173 " stroke-width="5" stroke="rgb(200,200,200)" stroke-linecap="round" fill="none" />
<path d="M 306.953364,329.123173 L 344.551485,297.011344 " stroke-width="5" stroke="rgb(200,200,200)" stroke-linecap="round" fill="none" />
<path d="M 344.551485,297.011344 L 332.283595,252.183687 " stroke-width="5" stroke="rgb(200,200,200)" stroke-linecap="round" fill="none" />
<path d="M 332.283595,252.183687 L 291.112782,250.129602 " stroke-width="5" stroke="rgb(200,200,200)" stroke-linecap="round" fill="none" />
<path d="M 291.112782,250.129602 L 280.343852,289.920119 " stroke-width="5" stroke="rgb(200,200,200)" stroke-linecap="round" fill="none" />
<path d="M 280.343852,289.920119 L 319.186501,315.440083 " stroke-width="5" stroke="rgb(200,200,200)" stroke-linecap="round" fill="none" />
<path d="M 319.186501,315.440083 L 361.345123,289.605246 " stroke-width="5" stroke="rgb(200,200,200)" stroke-linecap="round" fill="none" />
<path d="M 361.345123,289.605246 L 356.240862,243.410372 " stroke-width="5" stroke="rgb(200,200,200)" stroke-linecap="round" fill="none" />
<path d="M 356.240862,243.410372 L 315.898260,234.941041 " stroke-width="5" stroke="rgb(200,200,200)" stroke-linecap="round" fill="none" />
<path d="M 315.898260,234.941041 L 299.037305,272.557040 " stroke-width="5" stroke="rgb(200,200,200)" stroke-linecap="round" fill="none" />
<path d="M 299.037305,272.557040 L 333.409535,303.839140 " stroke-width="5" stroke="rgb(200,200,200)" stroke-linecap="round" fill="none" />
<path d="M 333.409535,303.839140 L 379.090573,284.917434 " stroke-width="5" stroke="rgb(200,200,200)" stroke-linecap="round" fill="none" />
<path d="M 379.090573,284.917434 L 381.275625,238.492812 " stroke-width="5" stroke="rgb(200,200,200)" stroke-linecap="round" fill="none" />
<path d="M 381.275625,238.492812 L 342.754602,223.816780 " stroke-width="5" stroke="rgb(200,200,200)" stroke-linecap="round" fill="none" />
<path d="M 342.754602,223.816780 L 320.216795,258.332029 " stroke-width="5" stroke="rgb(200,200,200)" stroke-linecap="round" fill="none" />
<path d="M 320.216795,258.332029 L 349.272246,294.605996 " stroke-width="5" stroke="rgb(200,200,200)" stroke-linecap="round" fill="none" />
<path d="M 349.272246,294.605996 L 397.350883,283.063336 " stroke-width="5" stroke="rgb(200,200,200)" stroke-linecap="round" fill="none" />
<path d="M 397.350883,283.063336 L 406.771443,237.552096 " stroke-width="5" stroke="rgb(200,200,200)" stroke-linecap="round" fill="none" />
<path d="M 406.771443,237.552096 L 371.020515,217.030735 " stroke-width="5" stroke="rgb(200,200,200)" stroke-linecap="round" fill="none" />
<path d="M 371.020515,217.030735 L 343.360812,247.595354 " stroke-width="5" stroke="rgb(200,200,200)" stroke-linecap="round" fill="none" />
<path d="M 343.360812,247.595354 L 366.384044,287.968002 " stroke-width="5" stroke="rgb(200,200,200)" stroke-linecap="round" fill="none" />
<path d="M 366.384044,287.968002 L 415.676422,284.088607 " stroke-width="5" stroke="rgb(200,200,200)" stroke-linecap="round" fill="none" />
<path d="M 415.676422,284.088607 L 432.100526,240.611387 " stroke-width="5" stroke="rgb(200,200,200)" stroke-linecap="round" fill="none" />
<path d="M 432.100526,240.611387 L 400.000000,214.750000 " stroke-width="5" stroke="rgb(200,200,200)" stroke-linecap="round" fill="none" />
<path d="M 400.000000,214.750000 L 367.899474,240.611387 " stroke-width="5" stroke="rgb(200,200,200)" stroke-linecap="round" fill="none" />
<path d="M 367.899474,240.611387 L 384.323578,284.088607 " stroke-width="5" stroke="rgb(200,200,200)" stroke-linecap="round" fill="none" />
<path d="M 384.323578,284.088607 L 433.615956,287.968002 " stroke-width="5" stroke="rgb(200,200,200)" stroke-linecap="round" fill="none" />
<path d="M 433.615956,287.968002 L 456.639188,247.595354 " stroke-width="5" stroke="rgb(200,200,200)" stroke-linecap="round" fill="none" />
<path d="M 456.639188,247.595354 L 428.979485,217.030735 " stroke-width="5" stroke="rgb(200,200,200)" stroke-linecap="round" fill="none" />
<path d="M 428.979485,217.030735 L 393.228557,237.552096 " stroke-width="5" stroke="rgb(200,200,200)" stroke-linecap="round" fill="none" />
<path d="M 393.228557,237.552096 L 402.649117,283.063336 " stroke-width="5" stroke="rgb(200,200,200)" stroke-linecap="round" fill="none" />
<path d="M 402.649117,283.063336 L 450.727754,294.605996 " stroke-width="5" stroke="rgb(200,200,200)" stroke-linecap="round" fill="none" />
<path d="M 450.727754,294.605996 L 479.783205,258.332029 " stroke-width="5" stroke="rgb(200,200,200)" stroke-linecap="round" fill="none" />
<path d="M 479.783205,258.332029 L 457.245398,223.816780 " stroke-width="5" stroke="rgb(200,200,200)" stroke-linecap="round" fill="none" />
<path d="M 457.245398,223.816780 L 418.724375,238.492812 " stroke-width="5" stroke="rgb(200,200,200)" stroke-linecap="round" fill="none" />
<path d="M 418.724375,238.492812 L 420.909427,284.917434 " stroke-width="5" stroke="rgb(200,200,200)" stroke-linecap="round" fill="none" />
<path d="M 420.909427,284.917434 L 466.590465,303.839140 " stroke-width="5" stroke="rgb(200,200,200)" stroke-linecap="round" fill="none" />
<path d="M 466.590465,303.839140 L 500.962695,272.557040 " stroke-width="5" stroke="rgb(200,200,200)" stroke-linecap="round" fill="none" />
<path d="M 500.962695,272.557040 L 484.101740,234.941041 " stroke-width="5" stroke="rgb(200,200,200)" stroke-linecap="round" fill="none" />
<path d="M 484.101740,234.941041 L 443.759138,243.410372 " stroke-width="5" stroke="rgb(200,200,200)" stroke-linecap="round" fill="none" />
<path d="M 443.759138,243.410372 L 438.654877,289.605246 " stroke-width="5" stroke="rgb(200,200,200)" stroke-linecap="round" fill="none" />
<path d="M 438.654877,289.605246 L 480.813499,315.440083 " stroke-width="5" stroke="rgb(200,200,200)" stroke-linecap="round" fill="none" />
<path d="M 480.813499,315.440083 L 519.656148,289.920119 " stroke-width="5" stroke="rgb(200,200,200)" stroke-linecap="round" fill="none" />
<path d="M 519.656148,289.920119 L 508.887218,250.129602 " stroke-width="5" stroke="rgb(200,200,200)" stroke-linecap="round" fill="none" />
<path d="M 508.887218,250.129602 L 467.716405,252.183687 " stroke-width="5" stroke="rgb(200,200,200)" stroke-linecap="round" fill="none" />
<path d="M 467.716405,252.183687 L 455.448515,297.011344 " stroke-width="5" stroke="rgb(200,200,200)" stroke-linecap="round" fill="none" />
<path d="M 455.448515,297.011344 L 493.046636,329.123173 " stroke-width="5" stroke="rgb(200,200,200)" stroke-linecap="round" fill="none" />
<path d="M 493.046636,329.123173 L 535.403269,309.993731 " stroke-width="5" stroke="rgb(200,200,200)" stroke-linecap="round" fill="none" />
<path d="M 535.403269,309.993731 L 530.991531,269.008469 " stroke-width="5" stroke="rgb(200,200,200)" stroke-linecap="round" fill="none" />
<path d="M 530.991531,269.008469 L 490.006269,264.596731 " stroke-width="5" stroke="rgb(200,200,200)" stroke-linecap="round" fill="none" />
<path d="M 490.006269,264.596731 L 470.876827,306.953364 " stroke-width="5" stroke="rgb(200,200,200)" stroke-linecap="round" fill="none" />
<path d="M 470.876827,306.953364 L 502.988656,344.551485 " stroke-width="5" stroke="rgb(200,200,200)" stroke-linecap="round" fill="none" />
<path d="M 502.988656,344.551485 L 547.816313,332.283595 " stroke-width="5" stroke="rgb(200,200,200)" stroke-linecap="round" fill="none" />
<path d="M 547.816313,332.283595 L 549.870398,291.112782 " stroke-width="5" stroke="rgb(200,200,200)" stroke-linecap="round" fill="none" />
<path d="M 549.870398,291.112782 L 510.079881,280.343852 " stroke-width="5" stroke="rgb(200,200,200)" stroke-linecap="round" fill="none" />
<path d="M 510.079881,280.343852 L 484.559917,319.186501 " stroke-width="5" stroke="rgb(200,200,200)" stroke-linecap="round" fill="none" />
<path d="M 484.559917,319.186501 L 510.394754,361.345123 " stroke-width="5" stroke="rgb(200,200,200)" stroke-linecap="round" fill="none" />
<path d="M 510.394754,361.345123 L 556.589628,356.240862 " stroke-width="5" stroke="rgb(200,200,200)" stroke-linecap="round" fill="none" />
<path d="M 556.589628,356.240862 L 565.058959,315.898260 " stroke-width="5" stroke="rgb(200,200,200)" stroke-linecap="round" fill="none" />
<path d="M 565.058959,315.898260 L 527.442960,299.037305 " stroke-width="5" stroke="rgb(200,200,200)" stroke-linecap="round" fill="none" />
<path d="M 527.442960,299.037305 L 496.160860,333.409535 " stroke-width="5" stroke="rgb(200,200,200)" stroke-linecap="round" fill="none" />
<path d="M 496.160860,333.409535 L 515.082566,379.090573 " stroke-width="5" stroke="rgb(200,200,200)" stroke-linecap="round" fill="none" />
<path d="M 515.082566,379.090573 L 561.507188,381.275625 " stroke-width="5" stroke="rgb(200,200,200)" stroke-linecap="round" fill="none" />
<path d="M 561.507188,381.275625 L 576.183220,342.754602 " stroke-width="5" stroke="rgb(200,200,200)" stroke-linecap="round" fill="none" />
<path d="M 576.183220,342.754602 L 541.667971,320.216795 " stroke-width="5" stroke="rgb(200,200,200)" stroke-linecap="round" fill="none" />
<path d="M 541.667971,320.216795 L 505.394004,349.272246 " stroke-width="5" stroke="rgb(200,200,200)" stroke-linecap="round" fill="none" />
<path d="M 505.394004,349.272246 L 516.936664,397.350883 " stroke-width="5" stroke="rgb(200,200,200)" stroke-linecap="round" fill="none" />
<path d="M 516.936664,397.350883 L 562.447904,406.771443 " stroke-width="5" stroke="rgb(200,200,200)" stroke-linecap="round" fill="none" />
<path d="M 562.447904,406.771443 L 582.969265,371.020515 " stroke-width="5" stroke="rgb(200,200,200)" stroke-linecap="round" fill="none" />
<path d="M 582.969265,371.020515 L 552.404646,343.360812 " stroke-width="5" stroke="rgb(200,200,200)" stroke-linecap="round" fill="none" />
<path d="M 552.404646,343.360812 L 512.031998,366.384044 " stroke-width="5" stroke="rgb(200,200,200)" stroke-linecap="round" fill="none" />
<path d="M 512.031998,366.384044 L 515.911393,415.676422 " stroke-width="5" stroke="rgb(200,200,200)" stroke-linecap="round" fill="none" />
<path d="M 515.911393,415.676422 L 559.388613,432.100526 " stroke-width="5" stroke="rgb(200,200,200)" stroke-linecap="round" fill="none" />
<path d="M 559.388613,432.100526 L 585.250000,400.000000 " stroke-width="5" stroke="rgb(200,200,200)" stroke-linecap="round" fill="none" />
<path d="M 400.000000,600.000000 L 226.446504,760.387547 " stroke-width="5" stroke="rgb(0,0,0)" stroke-linecap="round" fill="none" />
<path d="M 226.446504,760.387547 L 243.633704,524.697960 " stroke-width="5" stroke="rgb(0,0,0)" stroke-linecap="round" fill="none" />
<path d="M 243.633704,524.697960 L 10.028835,489.008374 " stroke-width="5" stroke="rgb(0,0,0)" stroke-linecap="round" fill="none" />
<path d="M 10.028835,489.008374 L 205.014418,355.495813 " stroke-width="5" stroke="rgb(0,0,0)" stroke-linecap="round" fill="none" />
<path d="M 205.014418,355.495813 L 87.267407,150.604079 " stroke-width="5" stroke="rgb(0,0,0)" stroke-linecap="round" fill="none" />
<path d="M 87.267407,150.604079 L 313.223252,219.806226 " stroke-width="5" stroke="rgb(0,0,0)" stroke-linecap="round" fill="none" />
<path d="M 313.223252,219.806226 L 400.000000,0.000000 " stroke-width="5" stroke="rgb(0,0,0)" stroke-linecap="round" fill="none" />
<path d="M 400.000000,0.000000 L 486.776748,219.806226 " stroke-width="5" stroke="rgb(0,0,0)" stroke-linecap="round" fill="none" />
<path d="M 486.776748,219.806226 L 712.732593,150.604079 " stroke-width="5" stroke="rgb(0,0,0)" stroke-linecap="round" fill="none" />
<path d="M 712.732593,150.604079 L 594.985582,355.495813 " stroke-width="5" stroke="rgb(0,0,0)" stroke-linecap="round" fill="none" />
<path d="M 594.985582,355.495813 L 789.971165,489.008374 " stroke-width="5" stroke="rgb(0,0,0)" stroke-linecap="round" fill="none" />
<path d="M 789.971165,489.008374 L 556.366296,524.697960 " stroke-width="5" stroke="rgb(0,0,0)" stroke-linecap="round" fill="none" />
<path d="M 556.366296,524.697960 L 573.553496,760.387547 " stroke-width="5" stroke="rgb(0,0,0)" stroke-linecap="round" fill="none" />
<path d="M 573.553496,760.387547 L 400.000000,600.000000 " stroke-width="5" stroke="rgb(0,0,0)" stroke-linecap="round" fill="none" />
<path d="M 360.000000,350.000000 L 440.000000,350.000000 " stroke-width="5" stroke="#cccccc" stroke-linecap="round" fill="none" />
<path d="M 400.000000,350.000000 L 400.000000,425.000000 L 375.000000,450.000000 L 350.000000,425.000000 " stroke-width="5" stroke="#cccccc" stroke-linecap="round" fill="none" />
</svg>
